<?xml version="1.0" standalone="no"?>
<!DOCTYPE svg PUBLIC "-//W3C//DTD SVG 20010904//EN"
 "http://www.w3.org/TR/2001/REC-SVG-20010904/DTD/svg10.dtd">
<svg version="1.0" xmlns="http://www.w3.org/2000/svg"
 width="700.000000pt" height="700.000000pt" viewBox="0 0 700.000000 700.000000"
 preserveAspectRatio="xMidYMid meet">
<metadata>
Created by potrace 1.14, written by Peter Selinger 2001-2017
</metadata>
<g transform="translate(0.000000,700.000000) scale(0.100000,-0.100000)"
fill="#000000" stroke="none">
<path d="M1119 6996 c-2 -2 -28 -7 -57 -10 -178 -21 -396 -111 -557 -230 -209
-155 -356 -359 -440 -608 -68 -204 -64 -47 -64 -2648 0 -1465 4 -2381 10
-2425 62 -445 370 -834 786 -991 99 -38 167 -55 293 -74 30 -5 1117 -8 2415
-8 1906 0 2376 3 2445 13 394 62 747 322 920 679 46 95 85 200 95 256 3 14 7
36 10 50 3 14 9 45 13 70 4 25 7 1125 7 2445 0 2284 -1 2404 -18 2485 -25 115
-50 187 -107 306 -162 336 -470 576 -860 670 -71 17 -201 18 -2481 21 -1323 2
-2407 1 -2410 -1z"/>
</g>
</svg>
